<?xml version="1.0" encoding="UTF-8" standalone="no"?>
<!DOCTYPE svg PUBLIC "-//W3C//DTD SVG 1.1//EN" "http://www.w3.org/Graphics/SVG/1.1/DTD/svg11.dtd">
<svg width="100%" height="100%" viewBox="0 0 5334 5334" version="1.1" xmlns="http://www.w3.org/2000/svg" xmlns:xlink="http://www.w3.org/1999/xlink" xml:space="preserve" xmlns:serif="http://www.serif.com/" style="fill-rule:evenodd;clip-rule:evenodd;stroke-linejoin:round;stroke-miterlimit:2;">
    <g transform="matrix(1,0,0,1,-24000,0)">
        <g id="Page-5" serif:id="Page 5" transform="matrix(4.16667,0,0,4.16667,24000,0)">
            <rect x="0" y="0" width="1280" height="1280" style="fill:none;"/>
            <g id="Layer-1" serif:id="Layer 1">
                <g transform="matrix(1,0,0,1,755.415,640)">
                    <path d="M0,461.662C0,525.372 -51.706,577.077 -115.415,577.077L-577.077,577.077C-640.787,577.077 -692.493,525.372 -692.493,461.662L-692.493,-0C-692.493,-63.709 -640.787,-115.415 -577.077,-115.415C-513.368,-115.415 -461.662,-63.709 -461.662,-0L-461.662,288.539C-461.662,320.394 -435.809,346.247 -403.954,346.247L-115.415,346.247C-51.706,346.247 0,397.952 0,461.662" style="fill:rgb(0,153,204);fill-rule:nonzero;"/>
                </g>
                <g transform="matrix(1,0,0,1,755.415,755.416)">
                    <path d="M0,-230.831L0,0C0,63.709 -51.706,115.415 -115.415,115.415C-179.125,115.415 -230.831,63.709 -230.831,0L-230.831,-230.831C-230.831,-294.541 -179.125,-346.246 -115.415,-346.246C-51.706,-346.246 0,-294.541 0,-230.831" style="fill:rgb(0,153,204);fill-rule:nonzero;"/>
                </g>
                <g transform="matrix(1,0,0,1,1217.08,640)">
                    <path d="M0,-461.662L0,0C0,63.709 -51.706,115.415 -115.415,115.415C-179.125,115.415 -230.831,63.709 -230.831,0L-230.831,-288.539C-230.831,-320.394 -256.684,-346.247 -288.539,-346.247L-577.077,-346.247C-640.787,-346.247 -692.493,-397.952 -692.493,-461.662C-692.493,-525.371 -640.787,-577.077 -577.077,-577.077L-115.415,-577.077C-51.706,-577.077 0,-525.371 0,-461.662" style="fill:rgb(0,153,204);fill-rule:nonzero;"/>
                </g>
            </g>
        </g>
    </g>
</svg>
